<svg width="1130" height="516" xmlns="http://www.w3.org/2000/svg" xmlns:xlink="http://www.w3.org/1999/xlink" overflow="hidden"><defs><clipPath id="clip0"><rect x="6" y="117" width="1130" height="516"/></clipPath></defs><g clip-path="url(#clip0)" transform="translate(-6 -117)"><text fill="#44546A" font-family="Malgun Gothic,Malgun Gothic_MSFontService,sans-serif" font-weight="700" font-size="27" transform="translate(105.255 155)">비전</text><path d="M83 170 180.735 170" stroke="#44546A" stroke-width="4" stroke-linejoin="round" stroke-miterlimit="10" fill="none" fill-rule="evenodd"/><path d="M8.50005 401.5C8.50005 334.674 66.0315 280.5 137 280.5 207.969 280.5 265.5 334.674 265.5 401.5 265.5 468.326 207.969 522.5 137 522.5 66.0315 522.5 8.50005 468.326 8.50005 401.5Z" stroke="#EBF1DE" stroke-width="2.66667" stroke-linejoin="round" stroke-miterlimit="10" fill="#D7E4BD" fill-rule="evenodd"/><text fill="#7F7F7F" font-family="HYGothic-Extra,HYGothic-Extra_MSFontService,sans-serif" font-weight="400" font-size="21" transform="translate(79.5451 359)">쓰레기<tspan font-size="21" x="71.1667" y="0">처리</tspan><tspan font-size="21" x="-10.6667" y="26">비용을</tspan><tspan font-size="21" x="60.5" y="26">시민의</tspan><tspan font-size="21" x="14.2467" y="51">수익으로</tspan><tspan font-size="21" x="3.58" y="77">순환시키는</tspan><tspan font-size="21" x="0" y="102">친환경</tspan><tspan font-size="21" x="71.1667" y="102">사업</tspan></text><path d="M1.25705-0.818434 92.1875 138.843 89.6734 140.48-1.25705 0.818434ZM91.9177 129.181 92.5548 142.156 80.9468 136.324C80.2065 135.952 79.9079 135.051 80.2799 134.311 80.6518 133.57 81.5534 133.272 82.2936 133.644L91.6039 138.321 89.4323 139.735 88.9213 129.328C88.8807 128.501 89.5185 127.797 90.346 127.757 91.1734 127.716 91.8771 128.354 91.9177 129.181Z" fill="#D7E4BD" transform="matrix(1 0 0 -1 265.5 401.651)"/><path d="M266.747 400.666 362.748 544.059 360.255 545.728 264.254 402.335ZM362.354 534.401 363.157 547.367 351.476 541.684C350.731 541.322 350.421 540.424 350.783 539.679 351.145 538.934 352.043 538.624 352.788 538.987L362.157 543.545 360.004 544.986 359.36 534.587C359.309 533.76 359.937 533.048 360.764 532.997 361.591 532.946 362.303 533.575 362.354 534.401Z" fill="#D7E4BD"/><path d="M358 258.5C358 215.698 392.25 181 434.5 181 476.75 181 511 215.698 511 258.5 511 301.302 476.75 336 434.5 336 392.25 336 358 301.302 358 258.5Z" fill="#D7E4BD" fill-rule="evenodd"/><text fill="#7F7F7F" font-family="HYGothic-Extra,HYGothic-Extra_MSFontService,sans-serif" font-weight="400" font-size="16" transform="translate(388.626 246)">특별<tspan font-size="16" x="37.3333" y="0">쓰레기</tspan><tspan font-size="16" x="-1.74667" y="20">통</tspan>(<tspan font-size="16" x="21.5867" y="20">버리랑께</tspan>) <tspan font-size="16" x="26.6667" y="39">배치</tspan></text><path d="M363 546.5C363 504.25 396.355 470 437.5 470 478.645 470 512 504.25 512 546.5 512 588.75 478.645 623 437.5 623 396.355 623 363 588.75 363 546.5Z" fill="#D7E4BD" fill-rule="evenodd"/><text fill="#7F7F7F" font-family="HYGothic-Extra,HYGothic-Extra_MSFontService,sans-serif" font-weight="400" font-size="16" transform="translate(394.899 534)">보상을<tspan font-size="16" x="53.3333" y="0">통한</tspan><tspan font-size="16" x="0" y="20">자발적</tspan><tspan font-size="16" x="53.3333" y="20">참여</tspan><tspan font-size="16" x="26.6667" y="39">유도</tspan><tspan fill="#44546A" font-family="Malgun Gothic,Malgun Gothic_MSFontService,sans-serif" font-weight="700" font-size="27" x="6.87543" y="-380">개요</tspan></text><path d="M380 169 477.735 169" stroke="#44546A" stroke-width="4" stroke-linejoin="round" stroke-miterlimit="10" fill="none" fill-rule="evenodd"/><path d="M511.5 258 600.995 258 600.995 261 511.5 261ZM592.751 252.954 603.972 259.5 592.751 266.046C592.035 266.463 591.116 266.222 590.699 265.506 590.282 264.79 590.523 263.872 591.239 263.454L600.239 258.204 600.239 260.796 591.239 255.546C590.523 255.128 590.282 254.21 590.699 253.494 591.116 252.779 592.035 252.537 592.751 252.954Z"/><path d="M1.70155e-06-1.5 89.581-1.4999 89.581 1.5001-1.70155e-06 1.5ZM81.3368-6.54558 92.5579 0.00010511 81.3368 6.54576C80.6212 6.96318 79.7027 6.72147 79.2853 6.0059 78.8679 5.29032 79.1096 4.37184 79.8252 3.95442L88.8252-1.29557 88.8252 1.29577 79.8252-3.95424C79.1096-4.37166 78.8679-5.29014 79.2853-6.00572 79.7027-6.72129 80.6212-6.963 81.3368-6.54558Z" transform="matrix(1 0 0 -1 512.5 547.5)"/><path d="M603.5 259.5C603.5 213.108 640.66 175.5 686.5 175.5 732.34 175.5 769.5 213.108 769.5 259.5 769.5 305.892 732.34 343.5 686.5 343.5 640.66 343.5 603.5 305.892 603.5 259.5Z" stroke="#BFBFBF" stroke-width="2.66667" stroke-linejoin="round" stroke-miterlimit="10" stroke-dasharray="8 2.66667" fill="#F2F2F2" fill-rule="evenodd"/><text fill="#8EB4E3" font-family="HYGothic-Extra,HYGothic-Extra_MSFontService,sans-serif" font-weight="400" font-size="16" transform="translate(643.602 236)">이미지<tspan font-size="16" x="53.3333" y="0">분류</tspan><tspan font-size="16" x="0" y="20">기술을</tspan><tspan font-size="16" x="53.3333" y="20">통한</tspan><tspan font-size="16" x="0" y="39">자동</tspan><tspan font-size="16" x="37.3333" y="39">분리수</tspan><tspan font-size="16" x="0" y="58">거</tspan><tspan font-size="16" x="21.3333" y="58">쓰레기통</tspan></text><path d="M786.5 258.5C786.5 212.108 823.66 174.5 869.5 174.5 915.34 174.5 952.5 212.108 952.5 258.5 952.5 304.892 915.34 342.5 869.5 342.5 823.66 342.5 786.5 304.892 786.5 258.5Z" stroke="#BFBFBF" stroke-width="2.66667" stroke-linejoin="round" stroke-miterlimit="10" stroke-dasharray="8 2.66667" fill="#F2F2F2" fill-rule="evenodd"/><text fill="#8EB4E3" font-family="HYGothic-Extra,HYGothic-Extra_MSFontService,sans-serif" font-weight="400" font-size="16" transform="translate(828.959 245)">유동인구가<tspan font-size="16" x="-5.33331" y="20">많은</tspan><tspan font-size="16" x="32" y="20">지역</tspan><tspan font-size="16" x="69.3334" y="20">위</tspan><tspan font-size="16" x="-2.66663" y="39">주</tspan><tspan font-size="16" x="18.6667" y="39">시범운영</tspan></text><path d="M968.5 259.5C968.5 213.108 1005.66 175.5 1051.5 175.5 1097.34 175.5 1134.5 213.108 1134.5 259.5 1134.5 305.892 1097.34 343.5 1051.5 343.5 1005.66 343.5 968.5 305.892 968.5 259.5Z" stroke="#BFBFBF" stroke-width="2.66667" stroke-linejoin="round" stroke-miterlimit="10" stroke-dasharray="8 2.66667" fill="#F2F2F2" fill-rule="evenodd"/><text fill="#8EB4E3" font-family="HYGothic-Extra,HYGothic-Extra_MSFontService,sans-serif" font-weight="400" font-size="16" transform="translate(1002.84 236)">어플리케이션<tspan font-size="16" x="2.66663" y="20">을</tspan><tspan font-size="16" x="23.9999" y="20">통한</tspan><tspan font-size="16" x="61.3333" y="20">실시</tspan><tspan font-size="16" x="0" y="39">간</tspan><tspan font-size="16" x="21.3333" y="39">현황</tspan><tspan font-size="16" x="58.6667" y="39">및</tspan><tspan font-size="16" x="79.9999" y="39">위</tspan><tspan font-size="16" x="21.3333" y="58">치</tspan><tspan font-size="16" x="42.6667" y="58">확인</tspan></text><path d="M605.5 547.5C605.5 501.108 642.66 463.5 688.5 463.5 734.34 463.5 771.5 501.108 771.5 547.5 771.5 593.892 734.34 631.5 688.5 631.5 642.66 631.5 605.5 593.892 605.5 547.5Z" stroke="#BFBFBF" stroke-width="2.66667" stroke-linejoin="round" stroke-miterlimit="10" stroke-dasharray="8 2.66667" fill="#F2F2F2" fill-rule="evenodd"/><text fill="#8EB4E3" font-family="HYGothic-Extra,HYGothic-Extra_MSFontService,sans-serif" font-weight="400" font-size="16" transform="translate(639.959 524)">어플리케이션<tspan font-size="16" x="2.66669" y="20">을</tspan><tspan font-size="16" x="24" y="20">통한</tspan><tspan font-size="16" x="61.3334" y="20">실시</tspan><tspan font-size="16" x="0" y="39">간</tspan><tspan font-size="16" x="21.3334" y="39">현황</tspan><tspan font-size="16" x="58.6667" y="39">및</tspan><tspan font-size="16" x="80" y="39">위</tspan><tspan font-size="16" x="21.3334" y="58">치</tspan><tspan font-size="16" x="42.6667" y="58">확인</tspan></text><path d="M786.5 547.5C786.5 501.108 823.66 463.5 869.5 463.5 915.34 463.5 952.5 501.108 952.5 547.5 952.5 593.892 915.34 631.5 869.5 631.5 823.66 631.5 786.5 593.892 786.5 547.5Z" stroke="#BFBFBF" stroke-width="2.66667" stroke-linejoin="round" stroke-miterlimit="10" stroke-dasharray="8 2.66667" fill="#F2F2F2" fill-rule="evenodd"/><text fill="#8EB4E3" font-family="HYGothic-Extra,HYGothic-Extra_MSFontService,sans-serif" font-weight="400" font-size="16" transform="translate(826.293 534)">리워드<tspan font-size="16" x="53.3333" y="0">지급</tspan><tspan font-size="16" x="-2.66669" y="20">을</tspan><tspan font-size="16" x="18.6666" y="20">통한</tspan><tspan font-size="16" x="56" y="20">자발</tspan><tspan font-size="16" x="-2.66669" y="39">적</tspan><tspan font-size="16" x="18.6666" y="39">참여</tspan><tspan font-size="16" x="56" y="39">유</tspan>도</text><path d="M968.5 547.5C968.5 501.108 1005.66 463.5 1051.5 463.5 1097.34 463.5 1134.5 501.108 1134.5 547.5 1134.5 593.892 1097.34 631.5 1051.5 631.5 1005.66 631.5 968.5 593.892 968.5 547.5Z" stroke="#BFBFBF" stroke-width="2.66667" stroke-linejoin="round" stroke-miterlimit="10" stroke-dasharray="8 2.66667" fill="#F2F2F2" fill-rule="evenodd"/><text fill="#8EB4E3" font-family="HYGothic-Extra,HYGothic-Extra_MSFontService,sans-serif" font-weight="400" font-size="16" transform="translate(1008.17 534)">리워드<tspan font-size="16" x="53.3334" y="0">사용</tspan><tspan font-size="16" x="-2.66669" y="20">을</tspan><tspan font-size="16" x="18.6666" y="20">통한</tspan><tspan font-size="16" x="56" y="20">지역</tspan><tspan font-size="16" x="0" y="39">경제</tspan><tspan font-size="16" x="37.3334" y="39">활성화</tspan></text></g></svg>